<?xml version="1.0" encoding="UTF-8"?>
<svg width="215px" height="115px" viewBox="0 0 215 115" version="1.1" xmlns="http://www.w3.org/2000/svg" xmlns:xlink="http://www.w3.org/1999/xlink">
    <!-- Generator: Sketch 63.1 (92452) - https://sketch.com -->
    <title>Group</title>
    <desc>Created with Sketch.</desc>
    <g id="Page-1" stroke="none" stroke-width="1" fill="none" fill-rule="evenodd">
        <g id="Thank-you" transform="translate(-70.000000, -178.000000)">
            <g id="Group-2" transform="translate(15.000000, 178.000000)">
                <g id="Group" transform="translate(55.000000, 0.000000)">
                    <g id="swirl">
                        <path d="M41.6537009,52.3020311 C39.1589008,49.1142311 37.7938008,45.187231 37.7740008,41.1381309 L37.7575008,37.8436308 L35.6169008,39.5827309 C32.2784007,42.2931309 28.0907006,43.7396309 23.7908005,43.6659309 L20.9000005,43.6164309 L22.7282005,46.023231 C24.9271005,48.9173311 26.2119006,52.4010311 26.4198006,56.0299312 L26.6739006,60.4739313 L29.5757006,58.3630313 C32.4654007,56.2609312 35.9084008,55.0520312 39.4790009,54.8881312 L43.5303009,54.7011312 L41.6537009,52.3020311 Z" id="Fill-98" fill="#FFFFFF"></path>
                        <path d="M60.1007013,36.7721208 C59.3230013,35.7788208 58.8984013,34.5556207 58.8918013,33.2950207 L58.8874013,32.2687207 L58.2208013,32.8099207 C57.1802012,33.6547207 55.8767012,34.1046207 54.5369012,34.0826207 L53.6371012,34.0672207 L54.2069012,34.8163208 C54.8911012,35.7183208 55.2915012,36.8029208 55.3564012,37.9326208 L55.4345012,39.3164209 L56.3387012,38.6597208 C57.2385012,38.0052208 58.3121013,37.6279208 59.4231013,37.5773208 L60.6848013,37.5190208 L60.1007013,36.7721208 Z" id="Fill-99" fill="#FFFFFF"></path>
                        <path d="M201.163604,110.103402 C200.385904,109.110102 199.961304,107.886902 199.954704,106.626302 L199.950304,105.600002 L199.283704,106.141202 C198.243104,106.986002 196.939604,107.435902 195.599804,107.413902 L194.700004,107.398502 L195.269804,108.147602 C195.954004,109.049602 196.354404,110.134202 196.419304,111.263902 L196.497404,112.647702 L197.401604,111.991002 C198.301404,111.336502 199.375004,110.959202 200.486004,110.908602 L201.747704,110.850302 L201.163604,110.103402 Z" id="Fill-99-Copy" fill="#FFFFFF"></path>
                        <path d="M29.7491706,32.5316207 C28.9714706,31.5383207 28.5468706,30.3151207 28.5402706,29.0545206 L28.5347706,28.0282206 L27.8692706,28.5694206 C26.8286706,29.4142206 25.5251706,29.8652206 24.1853705,29.8421206 L23.2855705,29.8267206 L23.8553705,30.5758207 C24.5395705,31.4778207 24.9399705,32.5624207 25.0048705,33.6921207 L25.0829705,35.0770208 L25.9871706,34.4192207 C26.8869706,33.7647207 27.9605706,33.3885207 29.0715706,33.3368207 L30.3332707,33.2785207 L29.7491706,32.5316207 Z" id="Fill-100" fill="#FFFFFF"></path>
                        <path d="M156.063603,99.1034021 C155.285903,98.1101021 154.861303,96.8869021 154.854703,95.6263021 L154.849203,94.6000021 L154.183703,95.1412021 C153.143103,95.9860021 151.839603,96.4370021 150.499803,96.4139021 L149.600003,96.3985021 L150.169803,97.1476021 C150.854003,98.0496021 151.254403,99.1342021 151.319303,100.263902 L151.397403,101.648802 L152.301603,100.991002 C153.201403,100.336502 154.275003,99.9603022 155.386003,99.9086022 L156.647703,99.8503022 L156.063603,99.1034021 Z" id="Fill-100-Copy" fill="#FFFFFF"></path>
                        <path d="M82.1758318,58.9579113 L81.1231318,59.2780113 C79.9989317,55.5765112 76.8177317,51.9091111 73.0205316,49.9357111 C70.7413315,48.7499111 67.1597315,47.623511 62.9830314,48.9886111 L62.6398314,47.943611 C66.2324314,46.771011 69.9911315,47.119711 73.5276316,48.9589111 C77.5745317,51.0632111 80.9691318,54.9880112 82.1758318,58.9579113" id="Fill-101" fill="#FFFFFF"></path>
                        <path d="M81.8428618,26.4000006 L82.4632618,27.3086006 C79.2699617,29.4910006 76.7245617,33.6248007 75.9787616,37.8389008 C75.5310616,40.3689009 75.5299616,44.123201 78.0841617,47.698201 L77.1898617,48.338401 C74.9942616,45.262801 74.2011616,41.5723009 74.8963616,37.6475008 C75.6905616,33.1562007 78.4174617,28.7408006 81.8428618,26.4000006" id="Fill-102" fill="#FFFFFF"></path>
                        <path d="M165.000004,55.0000004 C165.000004,55.0000004 165.129055,53.1142541 166.251871,52.1411299 C168.23357,50.425224 169.868945,51.7183494 171.152164,50.3523308 C172.747438,48.6546482 170.875105,47.0298588 172.403302,45.4028826 C174.19908,43.491623 175.714882,45.495457 177.410044,43.6898925 C179.184677,41.8019586 177.765116,39.6632722 179.439134,37.8824913 C180.309681,36.9552898 180.906815,36.9698685 182.093064,36.7985694 C183.372637,36.6141496 184.338697,36.985176 185.429433,35.8188848 C186.862118,34.2830251 185.240596,32.4016517 187.0145,30.5129889 C188.71112,28.7081533 190.226193,30.7119873 192.021971,28.8007277 C193.550168,27.1730225 191.678564,25.5489621 193.273109,23.8512795 C194.556328,22.4852609 196.265343,23.8592977 198.173402,22.0617514 C199.732221,20.5936824 199.146753,18.9113074 199.53828,18.0387758 C200.224365,16.5116633 202.400004,16.5000004 202.400004,16.5000004" id="Stroke-31" stroke="#FFFFFF" stroke-width="1.10000002"></path>
                        <path d="M141.824912,7.02208733 C141.595524,6.28967395 140.598351,5.39932776 138.446656,6.12779283 C136.905398,6.64897108 134.431423,8.11774617 133.233298,9.17787012 C133.85511,7.63802527 134.47313,4.6511211 134.47313,2.95334345 C134.47313,0.600144658 133.282588,0 132.543239,0 C131.805786,0 130.683493,0.714645942 130.683493,3.06784473 C130.683493,4.75772574 131.261701,7.66171519 131.858868,9.17589596 C130.645577,8.08418545 128.109042,6.54828892 126.558305,6.02316234 C124.40661,5.29667144 123.492851,6.28967395 123.263463,7.02208733 C123.035971,7.75252656 123.34119,9.0850846 125.490989,9.8115755 C127.032247,10.3347279 129.862626,10.6604643 131.43232,10.5341181 C130.059786,11.4007743 127.873967,13.4381075 126.914709,14.8101488 C125.587673,16.7152132 126.21138,17.9293217 126.808546,18.3814043 C127.407608,18.833487 128.717583,18.9440399 130.046515,17.0389755 C130.99819,15.6728567 132.171669,12.9702316 132.543239,11.3770844 C132.909122,13.0037923 134.093976,15.799203 135.051338,17.1732184 C136.380271,19.0763087 137.680766,18.833487 138.279828,18.3814043 C138.876995,17.9293217 139.381269,16.6658592 138.054232,14.7607948 C137.100662,13.3966502 134.99257,11.3988002 133.654159,10.5380664 C135.25229,10.6802059 138.17177,10.3682886 139.722507,9.84513622 C141.872306,9.11864532 142.052403,7.75252656 141.824912,7.02208733" id="Fill-57" fill="#FFFFFF"></path>
                        <path d="M7.66908011,88.0045135 C7.57462634,87.6598484 7.16402565,87.240862 6.27803367,87.583669 C5.643398,87.8289294 4.62470238,88.5201177 4.13135706,89.0189995 C4.38739703,88.2943667 4.64187579,86.8887647 4.64187579,86.0898105 C4.64187579,84.9824229 4.15165291,84.7000018 3.84721514,84.7000018 C3.54355797,84.7000018 3.08143705,85.0363058 3.08143705,86.1436935 C3.08143705,86.9389316 3.319523,88.3055149 3.56541505,89.0180705 C3.06582485,88.5043244 2.02136911,87.7815496 1.38283039,87.5344312 C0.496838409,87.1925531 0.120584545,87.6598484 0.0261307745,88.0045135 C-0.0675423867,88.3482496 0.0581357712,88.9753358 0.943347144,89.3172138 C1.57798281,89.5634032 2.74343306,89.7166909 3.38977787,89.6572339 C2.82461646,90.0650721 1.92457351,91.0238171 1.52958501,91.6694836 C0.983158237,92.5659845 1.23997882,93.1373297 1.48587087,93.3500745 C1.73254353,93.5628192 2.27194481,93.6148442 2.8191522,92.7183432 C3.21101825,92.0754638 3.69421564,90.8036402 3.84721514,90.0539239 C3.99787281,90.8194335 4.48575385,92.1349209 4.87996174,92.7815164 C5.42716912,93.6770883 5.96266736,93.5628192 6.20934002,93.3500745 C6.45523207,93.1373297 6.66287424,92.5427591 6.11644747,91.6462582 C5.7238008,91.0043078 4.85576284,90.0641431 4.30465241,89.6590919 C4.96270637,89.7259811 6.16484527,89.5791965 6.80338398,89.3330071 C7.68859536,88.991129 7.76275327,88.3482496 7.66908011,88.0045135" id="Fill-57-Copy" fill="#FFFFFF"></path>
                        <path d="M188.650004,77.3528577 C189.201342,77.3528577 189.648291,77.7998057 189.648291,78.3511441 L189.648291,80.4017153 C189.648291,80.9530537 189.201342,81.4000018 188.650004,81.4000018 C188.098666,81.4000018 187.651718,80.9530537 187.651718,80.4017153 L187.651718,78.3511441 C187.651718,77.7998057 188.098666,77.3528577 188.650004,77.3528577 Z M186.621804,76.2782015 C187.011659,76.6680566 187.011659,77.3001366 186.621804,77.6899917 L185.254757,79.0570392 C184.864902,79.4468943 184.232822,79.4468943 183.842967,79.0570392 C183.453111,78.6671841 183.453111,78.0351041 183.842967,77.645249 L185.210014,76.2782015 C185.599869,75.8883464 186.231949,75.8883464 186.621804,76.2782015 Z M192.089994,76.2782015 L193.457042,77.645249 C193.846897,78.0351041 193.846897,78.6671841 193.457042,79.0570392 C193.067187,79.4468943 192.435107,79.4468943 192.045251,79.0570392 L190.678204,77.6899917 C190.288349,77.3001366 190.288349,76.6680566 190.678204,76.2782015 C191.068059,75.8883464 191.700139,75.8883464 192.089994,76.2782015 Z M184.548862,73.2517152 C185.1002,73.2517152 185.547148,73.6986632 185.547148,74.2500016 C185.547148,74.80134 185.1002,75.248288 184.548862,75.248288 L182.49829,75.248288 C181.946952,75.248288 181.500004,74.80134 181.500004,74.2500016 C181.500004,73.6986632 181.946952,73.2517152 182.49829,73.2517152 L184.548862,73.2517152 Z M194.801718,73.2517152 C195.353056,73.2517152 195.800004,73.6986632 195.800004,74.2500016 C195.800004,74.80134 195.353056,75.248288 194.801718,75.248288 L192.751147,75.248288 C192.199808,75.248288 191.75286,74.80134 191.75286,74.2500016 C191.75286,73.6986632 192.199808,73.2517152 192.751147,73.2517152 L194.801718,73.2517152 Z M185.254757,69.442964 L186.621804,70.8100115 C187.011659,71.1998666 187.011659,71.8319466 186.621804,72.2218017 C186.231949,72.6116568 185.599869,72.6116568 185.210014,72.2218017 L183.842967,70.8547542 C183.453111,70.4648991 183.453111,69.8328191 183.842967,69.442964 C184.232822,69.0531089 184.864902,69.0531089 185.254757,69.442964 Z M193.457042,69.442964 C193.846897,69.8328191 193.846897,70.4648991 193.457042,70.8547542 L192.089994,72.2218017 C191.700139,72.6116568 191.068059,72.6116568 190.678204,72.2218017 C190.288349,71.8319466 190.288349,71.1998666 190.678204,70.8100115 L192.045251,69.442964 C192.435107,69.0531089 193.067187,69.0531089 193.457042,69.442964 Z M188.650004,67.1000015 C189.201342,67.1000015 189.648291,67.5469495 189.648291,68.0982879 L189.648291,70.1488591 C189.648291,70.7001975 189.201342,71.1471456 188.650004,71.1471456 C188.098666,71.1471456 187.651718,70.7001975 187.651718,70.1488591 L187.651718,68.0982879 C187.651718,67.5469495 188.098666,67.1000015 188.650004,67.1000015 Z" id="Combined-Shape" fill="#FFFFFF" fill-rule="nonzero"></path>
                        <path d="M34.1000007,110.000002 C34.707514,110.000002 35.2000008,110.485918 35.2000008,111.085326 L35.2000008,113.314679 C35.2000008,113.914087 34.707514,114.400002 34.1000007,114.400002 C33.4924875,114.400002 33.0000007,113.914087 33.0000007,113.314679 L33.0000007,111.085326 C33.0000007,110.485918 33.4924875,110.000002 34.1000007,110.000002 Z M30.8146772,106.700002 C31.4140848,106.700002 31.9000007,107.192489 31.9000007,107.800002 C31.9000007,108.407516 31.4140848,108.900002 30.8146772,108.900002 L28.585324,108.900002 C27.9859165,108.900002 27.5000006,108.407516 27.5000006,107.800002 C27.5000006,107.192489 27.9859165,106.700002 28.585324,106.700002 L30.8146772,106.700002 Z M40.7146775,106.700002 C41.314085,106.700002 41.8000009,107.192489 41.8000009,107.800002 C41.8000009,108.407516 41.314085,108.900002 40.7146775,108.900002 L38.4853243,108.900002 C37.8859167,108.900002 37.4000008,108.407516 37.4000008,107.800002 C37.4000008,107.192489 37.8859167,106.700002 38.4853243,106.700002 L40.7146775,106.700002 Z M35.2000008,100.100002 C35.807514,100.100002 36.3000008,100.585918 36.3000008,101.185326 L36.3000008,103.414679 C36.3000008,104.014086 35.807514,104.500002 35.2000008,104.500002 C34.5924875,104.500002 34.1000007,104.014086 34.1000007,103.414679 L34.1000007,101.185326 C34.1000007,100.585918 34.5924875,100.100002 35.2000008,100.100002 Z" id="Combined-Shape" fill="#FFFFFF" fill-rule="nonzero"></path>
                        <path d="M206.800004,81.9494504 C208.133931,81.5282275 210.177255,79.8764159 210.650549,78.1000017 C211.079233,79.6702151 212.876661,81.5282275 214.500005,81.6693702 C212.673199,82.3243609 210.926909,84.2705875 210.650549,85.8000019 C210.461231,84.2419179 208.046889,82.1766021 206.800004,81.9494504" id="Fill-63" fill="#FFFFFF"></path>
                    </g>
                    <g id="Group-10" transform="translate(85.800002, 23.100001)">
                        <path d="M33.0000007,66.0000014 C51.2253979,66.0000014 66.0000014,51.2253979 66.0000014,33.0000007 C66.0000014,14.7746036 51.2253979,0 33.0000007,0 C14.7746036,0 0,14.7746036 0,33.0000007 C0,51.2253979 14.7746036,66.0000014 33.0000007,66.0000014 Z" id="Mask" fill="#FFFFFF"></path>
                        <path d="M45.6615698,24.7375241 C46.3794781,25.4511593 46.3794781,26.6180908 45.6615698,27.3347889 L30.6100413,42.360946 C30.2510872,42.719295 29.7786177,42.9000009 29.3092162,42.9000009 C28.8398147,42.9000009 28.3673452,42.719295 28.0083911,42.360946 L20.3384316,34.7039153 C19.6205234,33.99028 19.6205234,32.8233485 20.3384316,32.1066504 C21.0563398,31.3899524 22.2191057,31.3899524 22.9400818,32.1066504 L29.3092162,38.4619859 L43.0599196,24.7375241 C43.7808958,24.020826 44.9436616,24.020826 45.6615698,24.7375241 Z" id="Path" fill="#6BBBAE"></path>
                    </g>
                </g>
            </g>
        </g>
    </g>
</svg>